<?xml version="1.0" standalone="no"?>
<!DOCTYPE svg PUBLIC "-//W3C//DTD SVG 20010904//EN"
 "http://www.w3.org/TR/2001/REC-SVG-20010904/DTD/svg10.dtd">
<svg version="1.0" xmlns="http://www.w3.org/2000/svg"
 width="225.000000pt" height="225.000000pt" viewBox="0 0 225.000000 225.000000"
 preserveAspectRatio="xMidYMid meet">
<metadata>
Created by potrace 1.11, written by Peter Selinger 2001-2013
</metadata>
<g transform="translate(0.000000,225.000000) scale(0.100000,-0.100000)"
fill="#000000" stroke="none">
<path d="M562 2104 c-18 -12 -22 -25 -22 -70 l0 -54 -107 0 c-119 0 -155 -13
-190 -67 -17 -26 -18 -74 -18 -853 0 -770 1 -827 18 -857 9 -18 32 -41 50 -50
30 -17 86 -18 832 -18 746 0 802 1 832 18 18 9 41 32 50 50 17 30 18 87 18
857 0 779 -1 827 -18 853 -33 51 -73 67 -164 67 l-83 0 0 50 c0 49 -23 90 -50
90 -27 0 -50 -41 -50 -90 l0 -50 -515 0 -514 0 -3 56 c-2 44 -8 60 -23 70 -18
12 -24 11 -43 -2z m2 -455 c17 -8 29 -8 44 0 18 9 22 22 24 77 l3 66 26 -26
c34 -33 43 -78 25 -120 -18 -44 -52 -66 -101 -66 -50 0 -83 22 -101 66 -18 42
-10 80 25 117 l26 28 3 -66 c3 -58 6 -67 26 -76z m1096 79 c0 -76 39 -110 82
-71 13 12 18 30 18 70 0 29 4 53 8 53 20 0 45 -42 49 -84 5 -42 3 -48 -30 -81
-29 -29 -42 -35 -77 -35 -35 0 -48 6 -77 35 -33 33 -35 39 -30 81 4 42 29 84
49 84 4 0 8 -23 8 -52z m270 -858 l0 -591 -25 -24 -24 -25 -756 0 -756 0 -24
25 -25 24 0 591 0 590 805 0 805 0 0 -590z"/>
<path d="M949 1331 c-48 -15 -68 -31 -93 -74 -48 -83 -40 -184 21 -265 40 -53
34 -61 -70 -106 -108 -47 -167 -109 -167 -176 0 -68 45 -100 138 -100 42 0 63
5 73 16 19 23 124 93 165 110 18 8 34 19 34 26 0 6 -12 36 -27 67 -25 49 -28
67 -28 151 0 78 4 102 22 136 24 44 72 90 110 105 32 12 29 26 -16 69 -48 46
-100 59 -162 41z"/>
<path d="M1149 1157 c-59 -32 -99 -106 -99 -186 0 -72 11 -110 50 -167 17 -26
30 -53 28 -61 -2 -8 -40 -31 -86 -50 -184 -79 -253 -206 -154 -283 23 -19 41
-20 293 -20 l269 0 0 80 0 80 45 0 45 0 0 45 0 45 -95 46 c-52 25 -98 50 -101
56 -3 5 6 26 20 46 79 115 78 261 -1 345 -49 51 -143 61 -214 24z"/>
<path d="M1610 530 l0 -50 -50 0 -50 0 0 -44 0 -45 48 -3 47 -3 3 -47 3 -48
39 0 39 0 3 48 3 47 43 3 42 3 0 45 0 44 -45 0 -45 0 0 50 0 50 -40 0 -40 0 0
-50z"/>
</g>
</svg>
